<svg width="40" height="38" viewBox="0 0 40 38" fill="none" xmlns="http://www.w3.org/2000/svg">
<path d="M20.8334 22.1666H34.1667C34.6267 22.1666 35.0001 21.8119 35.0001 21.3749C35.0001 20.9379 34.6267 20.5833 34.1667 20.5833H20.8334C20.3734 20.5833 20 20.9379 20 21.3749C20 21.8119 20.3734 22.1666 20.8334 22.1666Z" fill="#AF06FF"/>
<path d="M40 15.0417V11.875C40 11.1103 39.76 10.4025 39.3634 9.79606C39.3534 9.77706 39.3517 9.75487 39.34 9.7375L34.1866 1.86831C33.4216 0.699809 32.0984 0 30.6484 0H9.35336C7.90172 0 6.58 0.699809 5.815 1.86831L0.661641 9.7375C0.651641 9.75331 0.651641 9.77075 0.641641 9.78819C0.241641 10.3946 0 11.1071 0 11.875V15.0417C0 16.34 0.671641 17.4864 1.69336 18.2084C0.671641 18.9303 0 20.0751 0 21.375V24.5417C0 25.84 0.671641 26.9864 1.69336 27.7084C0.671641 28.4303 0 29.5751 0 30.875V34.0417C0 36.2235 1.87 38 4.16664 38H15.0933C15.5549 38 15.9266 37.6453 15.9266 37.2083C15.9266 36.7713 15.5533 36.4166 15.0933 36.4166H4.16664C2.78828 36.4166 1.66664 35.3511 1.66664 34.0416V30.875C1.66664 29.564 2.78828 28.5 4.16664 28.5H18.1066C18.5666 28.5 18.94 28.1453 18.94 27.7083C18.94 27.2713 18.5666 26.9166 18.1066 26.9166H4.16664C2.78828 26.9166 1.66664 25.8511 1.66664 24.5416V21.375C1.66664 20.064 2.78828 19 4.16664 19H35.8333C37.2116 19 38.3333 20.0656 38.3333 21.375V24.5417C38.3333 24.89 38.2433 25.2399 38.0699 25.5772C37.8683 25.9699 38.0383 26.4432 38.4516 26.6364C38.8666 26.8296 39.3649 26.6681 39.5666 26.2739C39.8549 25.7166 39.9999 25.1354 39.9999 24.5417V21.375C39.9999 20.0767 39.3283 18.9303 38.3066 18.2083C39.3284 17.4847 40 16.34 40 15.0417ZM7.23 2.70431C7.68836 2.00287 8.48164 1.58331 9.35164 1.58331H30.6466C31.5166 1.58331 32.31 2.00287 32.77 2.70431L36.2084 7.95306C36.0834 7.94037 35.9617 7.91662 35.8334 7.91662H4.16664C4.03828 7.91662 3.91664 7.94037 3.79164 7.95143L7.23 2.70431ZM38.3334 15.0417C38.3334 16.3511 37.2117 17.4167 35.8334 17.4167H4.16664C2.78828 17.4167 1.66664 16.3511 1.66664 15.0417V11.875C1.66664 10.564 2.78828 9.5 4.16664 9.5H35.8333C37.2116 9.5 38.3333 10.564 38.3333 11.875V15.0417H38.3334Z" fill="#AF06FF"/>
<path d="M3.33337 32.4583C3.33337 33.7677 4.45502 34.8333 5.83337 34.8333C7.21173 34.8333 8.33338 33.7677 8.33338 32.4583C8.33338 31.1488 7.21173 30.0833 5.83337 30.0833C4.45502 30.0833 3.33337 31.1473 3.33337 32.4583ZM6.66666 32.4583C6.66666 32.8953 6.2933 33.2499 5.8333 33.2499C5.3733 33.2499 5.00002 32.8953 5.00002 32.4583C5.00002 32.0213 5.37337 31.6666 5.83337 31.6666C6.29338 31.6666 6.66666 32.0213 6.66666 32.4583Z" fill="#AF06FF"/>
<path d="M34.1667 26.9167C34.015 26.9167 33.8633 26.9246 33.715 26.9373C32.3267 24.9581 29.995 23.75 27.5 23.75C23.62 23.75 20.4184 26.5636 20.0384 30.1562C18.12 30.5077 16.6667 32.1164 16.6667 34.0417C16.6667 36.2235 18.5367 38 20.8334 38H34.1667C37.3834 38 40 35.5142 40 32.4583C40 29.4024 37.3834 26.9167 34.1667 26.9167ZM34.1667 36.4167H20.8334C19.455 36.4167 18.3334 35.3511 18.3334 34.0417C18.3334 32.7322 19.455 31.6667 20.8334 31.6667C21.2934 31.6667 21.6667 31.312 21.6667 30.875C21.6667 27.8192 24.2834 25.3333 27.5001 25.3333C29.5835 25.3333 31.5251 26.4243 32.5635 28.1801C32.7368 28.4731 33.0801 28.6282 33.4368 28.5712C33.6752 28.5316 33.9168 28.4999 34.1668 28.4999C36.4635 28.4999 38.3335 30.2764 38.3335 32.4582C38.3335 34.64 36.4634 36.4167 34.1667 36.4167Z" fill="#AF06FF"/>
<path d="M34.1666 11.0833H20.8334C20.3734 11.0833 20 11.4379 20 11.8749C20 12.3119 20.3734 12.6666 20.8334 12.6666H34.1667C34.6267 12.6666 35.0001 12.3119 35.0001 11.8749C35.0001 11.4379 34.6266 11.0833 34.1666 11.0833Z" fill="#AF06FF"/>
<path d="M34.1666 14.25H20.8334C20.3734 14.25 20 14.6047 20 15.0417C20 15.4787 20.3734 15.8334 20.8334 15.8334H34.1667C34.6267 15.8334 35.0001 15.4787 35.0001 15.0417C35.0001 14.6047 34.6266 14.25 34.1666 14.25Z" fill="#AF06FF"/>
<path d="M5.83337 11.0833C4.45502 11.0833 3.33337 12.1473 3.33337 13.4583C3.33337 14.7693 4.45502 15.8333 5.83337 15.8333C7.21173 15.8333 8.33338 14.7677 8.33338 13.4583C8.33338 12.1489 7.21166 11.0833 5.83337 11.0833ZM5.83337 14.2499C5.37337 14.2499 5.00002 13.8953 5.00002 13.4583C5.00002 13.0213 5.37337 12.6666 5.83337 12.6666C6.29338 12.6666 6.66673 13.0213 6.66673 13.4583C6.66673 13.8953 6.29338 14.2499 5.83337 14.2499Z" fill="#AF06FF"/>
<path d="M3.33337 22.9583C3.33337 24.2677 4.45502 25.3333 5.83337 25.3333C7.21173 25.3333 8.33338 24.2677 8.33338 22.9583C8.33338 21.6488 7.21173 20.5833 5.83337 20.5833C4.45502 20.5833 3.33337 21.6473 3.33337 22.9583ZM6.66666 22.9583C6.66666 23.3953 6.2933 23.7499 5.8333 23.7499C5.3733 23.7499 5.00002 23.3953 5.00002 22.9583C5.00002 22.5213 5.37337 22.1666 5.83337 22.1666C6.29338 22.1666 6.66666 22.5213 6.66666 22.9583Z" fill="#AF06FF"/>
</svg>
