<svg width="49" height="40" viewBox="0 0 49 40" fill="none" xmlns="http://www.w3.org/2000/svg">
<g clip-path="url(#clip0)">
<path d="M48.6961 19.3994L36.1904 9.19072C35.8016 8.87327 35.1135 8.87327 34.7246 9.19072L32.0134 11.404C31.6085 11.7345 31.6085 12.2704 32.0134 12.6009L41.0752 19.9975L32.0139 27.3952C31.609 27.7258 31.609 28.2617 32.0139 28.5922L34.7252 30.8055C34.9196 30.9642 35.1835 31.0539 35.4583 31.0539C35.7326 31.0539 35.997 30.9642 36.1915 30.8055L48.6961 20.5972C49.101 20.2662 49.101 19.73 48.6961 19.3994Z" fill="#6B18DA"/>
<path d="M16.9853 27.3953L7.92512 19.9984L16.9869 12.6019C17.1813 12.4431 17.2907 12.2281 17.2907 12.0034C17.2907 11.779 17.1818 11.5636 16.9869 11.4049L14.2757 9.19164C14.0812 9.03291 13.8173 8.9436 13.5425 8.9436C13.2677 8.9436 13.0038 9.03291 12.8094 9.19164L0.303221 19.3995C-0.101725 19.73 -0.101725 20.2659 0.303221 20.5969L12.8088 30.8051C13.0033 30.9638 13.2672 31.0536 13.542 31.0536C13.8168 31.0536 14.0807 30.9638 14.2751 30.8051L16.9864 28.5919C17.3913 28.2617 17.3913 27.7259 16.9853 27.3953Z" fill="#6B18DA"/>
<path d="M31.6112 5.75639C31.4795 5.55914 31.2576 5.4127 30.9942 5.34921L28.7963 4.81971C28.2477 4.6868 27.6701 4.94372 27.5083 5.39196L17.3048 33.5994C17.2271 33.8149 17.2571 34.0464 17.3883 34.2432C17.5195 34.4409 17.7419 34.5869 18.0053 34.6508L20.2032 35.1803C20.3012 35.204 20.4003 35.2155 20.4972 35.2155C20.9447 35.2155 21.3579 34.9767 21.4912 34.6081L31.6947 6.40017C31.7724 6.18473 31.7429 5.9532 31.6112 5.75639Z" fill="#6B18DA"/>
</g>
<defs>
<clipPath id="clip0">
<rect width="49" height="40" fill="white"/>
</clipPath>
</defs>
</svg>
